<svg xmlns="http://www.w3.org/2000/svg" width="90" height="90" viewBox="0 0 90 90" fill="none"><g id="api"><g id="Group"><path id="Vector" d="M40.8023 46.627L46.6256 40.803C46.74 40.6889 46.8307 40.5533 46.8926 40.404C46.9544 40.2548 46.9863 40.0948 46.9863 39.9332C46.9863 39.7717 46.9544 39.6117 46.8926 39.4625C46.8307 39.3132 46.74 39.1776 46.6256 39.0635L43.5234 35.9613C44.1611 34.7927 44.6723 33.5595 45.0485 32.2825H49.4332C49.7595 32.2825 50.0725 32.1529 50.3033 31.9221C50.534 31.6914 50.6637 31.3784 50.6637 31.0521V22.8171C50.6637 22.4907 50.534 22.1778 50.3033 21.947C50.0725 21.7162 49.7595 21.5866 49.4332 21.5866H45.0584C44.6819 20.3079 44.1689 19.0733 43.5284 17.9043L46.6256 14.8064C46.74 14.6922 46.8307 14.5565 46.8926 14.4072C46.9545 14.2579 46.9864 14.0979 46.9864 13.9362C46.9864 13.7746 46.9545 13.6146 46.8926 13.4653C46.8307 13.316 46.74 13.1803 46.6256 13.0661L40.8023 7.24215C40.6882 7.12781 40.5526 7.03711 40.4034 6.97522C40.2541 6.91333 40.0941 6.88148 39.9326 6.88148C39.771 6.88148 39.611 6.91333 39.4618 6.97522C39.3125 7.03711 39.177 7.12781 39.0628 7.24215L35.9648 10.3408C34.7958 9.70024 33.5613 9.18728 32.2826 8.81082V4.43457C32.2827 4.27296 32.2509 4.11291 32.1891 3.96358C32.1273 3.81425 32.0367 3.67857 31.9224 3.56429C31.8081 3.45001 31.6724 3.35938 31.5231 3.29758C31.3738 3.23577 31.2137 3.20401 31.0521 3.2041H22.8164C22.6548 3.20401 22.4947 3.23577 22.3454 3.29758C22.1961 3.35938 22.0604 3.45001 21.9461 3.56429C21.8319 3.67857 21.7412 3.81425 21.6794 3.96358C21.6176 4.11291 21.5858 4.27296 21.5859 4.43457V8.81855C20.3092 9.19516 19.0763 9.70664 17.9079 10.3443L14.8064 7.24215C14.6922 7.12779 14.5566 7.03707 14.4073 6.97517C14.258 6.91328 14.0979 6.88142 13.9363 6.88142C13.7747 6.88142 13.6146 6.91328 13.4653 6.97517C13.316 7.03707 13.1804 7.12779 13.0662 7.24215L7.24219 13.0661C7.12783 13.1803 7.03711 13.316 6.97521 13.4653C6.91331 13.6146 6.88145 13.7746 6.88145 13.9362C6.88145 14.0979 6.91331 14.2579 6.97521 14.4072C7.03711 14.5565 7.12783 14.6922 7.24219 14.8064L10.343 17.9079C9.70532 19.0765 9.19384 20.3097 8.81719 21.5866H4.43461C4.273 21.5865 4.11295 21.6183 3.96362 21.6801C3.81429 21.7419 3.67861 21.8325 3.56433 21.9468C3.45005 22.0611 3.35942 22.1968 3.29762 22.3461C3.23581 22.4954 3.20405 22.6555 3.20414 22.8171V31.0521C3.20405 31.2137 3.23581 31.3737 3.29762 31.5231C3.35942 31.6724 3.45005 31.8081 3.56433 31.9223C3.67861 32.0366 3.81429 32.1273 3.96362 32.1891C4.11295 32.2509 4.273 32.2826 4.43461 32.2825H8.81016C9.18681 33.5613 9.7 34.7959 10.3409 35.9648L7.24219 39.0635C7.12785 39.1776 7.03715 39.3132 6.97526 39.4625C6.91337 39.6117 6.88152 39.7717 6.88152 39.9332C6.88152 40.0948 6.91337 40.2548 6.97526 40.404C7.03715 40.5533 7.12785 40.6889 7.24219 40.803L13.0648 46.627C13.2957 46.8574 13.6086 46.9869 13.9349 46.9869C14.2611 46.9869 14.5741 46.8574 14.805 46.627L17.903 43.5283C19.0723 44.1689 20.307 44.6821 21.5859 45.059V49.4353C21.5859 49.7616 21.7156 50.0746 21.9463 50.3054C22.1771 50.5361 22.4901 50.6657 22.8164 50.6657H31.0521C31.3784 50.6657 31.6914 50.5361 31.9222 50.3054C32.1529 50.0746 32.2826 49.7616 32.2826 49.4353V45.0506C33.5593 44.674 34.7922 44.1625 35.9606 43.5248L39.0628 46.627C39.2935 46.8576 39.6064 46.9871 39.9326 46.9871C40.2588 46.9871 40.5716 46.8576 40.8023 46.627ZM37.0329 41.1166C36.8375 40.9208 36.5817 40.7967 36.307 40.7643C36.0323 40.7319 35.7547 40.7931 35.5191 40.938C34.049 41.8419 32.4446 42.5064 30.7659 42.9068C30.4973 42.9713 30.2581 43.1242 30.0869 43.341C29.9156 43.5577 29.8222 43.8258 29.8216 44.1021V48.2013H24.0469V44.1133C24.0465 43.8368 23.953 43.5685 23.7814 43.3516C23.6098 43.1347 23.3702 42.982 23.1012 42.918C21.4227 42.5166 19.8193 41.8493 18.3516 40.9415C18.1157 40.7961 17.8377 40.7344 17.5625 40.7666C17.2872 40.7988 17.0309 40.9228 16.8349 41.1187L13.9359 44.0156L9.85359 39.9318L12.7505 37.0343C12.9462 36.8383 13.0702 36.5821 13.1023 36.3071C13.1345 36.032 13.0729 35.7541 12.9277 35.5183C12.0199 34.0497 11.3531 32.4453 10.9526 30.7659C10.8886 30.4969 10.7358 30.2573 10.519 30.0857C10.3021 29.9141 10.0338 29.8206 9.75726 29.8202H5.66508V24.0468H9.76359C10.0399 24.0464 10.308 23.953 10.5248 23.7817C10.7416 23.6105 10.8945 23.3712 10.9589 23.1025C11.3588 21.4242 12.0234 19.8202 12.9277 18.3508C13.0723 18.1149 13.1334 17.8371 13.101 17.5622C13.0686 17.2874 12.9446 17.0314 12.7491 16.8356L9.85359 13.9359L13.9359 9.85355L16.8356 12.7532C17.0313 12.9489 17.2871 13.0729 17.5619 13.1053C17.8367 13.1377 18.1144 13.0766 18.3502 12.9318C19.82 12.028 21.4242 11.3634 23.1026 10.9631C23.3712 10.8986 23.6104 10.7457 23.7816 10.5289C23.9529 10.3121 24.0463 10.044 24.0469 9.76777V5.66504H29.8216V9.75652C29.822 10.033 29.9156 10.3014 30.0871 10.5182C30.2587 10.7351 30.4983 10.8878 30.7673 10.9518C32.4467 11.3522 34.0511 12.0188 35.5198 12.9262C35.7554 13.0721 36.0334 13.134 36.3086 13.1018C36.5838 13.0697 36.8401 12.9453 37.0357 12.749L39.9326 9.85215L44.0156 13.9359L41.1187 16.8335C40.9231 17.0296 40.7992 17.2859 40.767 17.5611C40.7349 17.8362 40.7964 18.1142 40.9416 18.3501C41.8493 19.8184 42.5158 21.4226 42.9159 23.1018C42.9799 23.3709 43.1327 23.6105 43.3495 23.782C43.5664 23.9536 43.8347 24.0471 44.1112 24.0475H48.2027V29.8216H44.1035C43.8271 29.8222 43.559 29.9157 43.3422 30.0871C43.1254 30.2585 42.9726 30.4978 42.9082 30.7666C42.5079 32.4451 41.8434 34.0492 40.9395 35.519C40.7945 35.7546 40.7333 36.0323 40.7657 36.307C40.7981 36.5817 40.9223 36.8374 41.118 37.0329L44.0156 39.9332L39.9326 44.0156L37.0329 41.1166Z" fill="black"></path><path id="Vector_2" d="M26.9346 16.283C24.8279 16.283 22.7685 16.9077 21.0169 18.0781C19.2652 19.2485 17.9 20.9121 17.0938 22.8584C16.2876 24.8047 16.0766 26.9464 16.4876 29.0126C16.8986 31.0788 17.9131 32.9768 19.4028 34.4664C20.8924 35.9561 22.7904 36.9706 24.8566 37.3816C26.9228 37.7926 29.0645 37.5816 31.0108 36.7754C32.9572 35.9692 34.6207 34.604 35.7911 32.8523C36.9615 31.1007 37.5863 29.0413 37.5863 26.9346C37.5831 24.1106 36.4599 21.4031 34.463 19.4062C32.4661 17.4094 29.7586 16.2861 26.9346 16.283ZM26.9346 35.1267C25.3147 35.1267 23.7312 34.6464 22.3842 33.7464C21.0373 32.8465 19.9875 31.5674 19.3675 30.0708C18.7475 28.5742 18.5853 26.9274 18.9012 25.3386C19.2171 23.7498 19.9971 22.2903 21.1424 21.1448C22.2878 19.9993 23.7471 19.2191 25.3358 18.9029C26.9246 18.5867 28.5714 18.7487 30.0681 19.3684C31.5648 19.9881 32.8441 21.0377 33.7442 22.3845C34.6444 23.7312 35.125 25.3147 35.1253 26.9346C35.1227 29.1061 34.2589 31.1879 32.7234 32.7234C31.1879 34.2589 29.1061 35.1227 26.9346 35.1253V35.1267Z" fill="black"></path><path id="Vector_3" d="M85.5654 57.7174H81.1891C80.8127 56.4387 80.2998 55.2041 79.6591 54.0352L82.7571 50.9365C82.8714 50.8223 82.9621 50.6868 83.024 50.5375C83.0859 50.3883 83.1178 50.2283 83.1178 50.0667C83.1178 49.9052 83.0859 49.7452 83.024 49.5959C82.9621 49.4467 82.8714 49.3111 82.7571 49.197L76.9338 43.3744C76.8196 43.26 76.684 43.1693 76.5347 43.1074C76.3854 43.0455 76.2253 43.0137 76.0637 43.0137C75.9021 43.0137 75.742 43.0455 75.5927 43.1074C75.4434 43.1693 75.3078 43.26 75.1936 43.3744L72.0956 46.4717C70.9267 45.8312 69.6925 45.318 68.4141 44.9409V40.5647C68.4141 40.2384 68.2844 39.9254 68.0537 39.6946C67.8229 39.4639 67.5099 39.3342 67.1836 39.3342H58.9479C58.6215 39.3342 58.3086 39.4639 58.0778 39.6946C57.8471 39.9254 57.7174 40.2384 57.7174 40.5647V44.9494C56.4405 45.3259 55.2072 45.8373 54.0387 46.4752L50.9372 43.3744C50.823 43.26 50.6875 43.1693 50.5382 43.1075C50.389 43.0456 50.229 43.0137 50.0674 43.0137C49.9059 43.0137 49.7459 43.0456 49.5966 43.1075C49.4474 43.1693 49.3118 43.26 49.1977 43.3744L43.3737 49.197C43.1431 49.4277 43.0136 49.7405 43.0136 50.0667C43.0136 50.3929 43.1431 50.7058 43.3737 50.9365L46.4766 54.0387C45.8386 55.2071 45.3274 56.4404 44.9515 57.7174H40.5654C40.2391 57.7174 39.9261 57.8471 39.6953 58.0778C39.4646 58.3086 39.3349 58.6216 39.3349 58.9479V67.1829C39.3349 67.5092 39.4646 67.8222 39.6953 68.053C39.9261 68.2837 40.2391 68.4134 40.5654 68.4134H44.9416C45.3181 69.6921 45.8311 70.9266 46.4716 72.0956L43.3737 75.1936C43.1431 75.4245 43.0135 75.7374 43.0135 76.0637C43.0135 76.39 43.1431 76.703 43.3737 76.9338L49.1977 82.7578C49.3118 82.8722 49.4474 82.9629 49.5966 83.0247C49.7459 83.0866 49.9059 83.1185 50.0674 83.1185C50.229 83.1185 50.389 83.0866 50.5382 83.0247C50.6875 82.9629 50.823 82.8722 50.9372 82.7578L54.0352 79.6641C55.2041 80.3048 56.4386 80.8177 57.7174 81.1941V85.5703C57.7173 85.7319 57.7491 85.892 57.8109 86.0413C57.8727 86.1906 57.9633 86.3263 58.0776 86.4406C58.1919 86.5549 58.3276 86.6455 58.4769 86.7073C58.6262 86.7691 58.7863 86.8009 58.9479 86.8008H67.1829C67.3445 86.8009 67.5045 86.7691 67.6539 86.7073C67.8032 86.6455 67.9389 86.5549 68.0532 86.4406C68.1674 86.3263 68.2581 86.1906 68.3199 86.0413C68.3817 85.892 68.4135 85.7319 68.4134 85.5703V81.1863C69.6904 80.8097 70.9236 80.2979 72.0921 79.6598L75.1936 82.7613C75.3078 82.8757 75.4434 82.9664 75.5927 83.0283C75.742 83.0902 75.9021 83.1221 76.0637 83.1221C76.2253 83.1221 76.3854 83.0902 76.5347 83.0283C76.684 82.9664 76.8196 82.8757 76.9338 82.7613L82.7571 76.9388C82.8715 76.8245 82.9622 76.6889 83.0241 76.5396C83.086 76.3903 83.1178 76.2303 83.1178 76.0686C83.1178 75.907 83.086 75.747 83.0241 75.5977C82.9622 75.4484 82.8715 75.3127 82.7571 75.1985L79.6556 72.0963C80.2933 70.9279 80.8048 69.695 81.1814 68.4183H85.5654C85.727 68.4184 85.8871 68.3866 86.0364 68.3248C86.1857 68.263 86.3214 68.1724 86.4357 68.0581C86.5499 67.9438 86.6406 67.8081 86.7024 67.6588C86.7642 67.5095 86.796 67.3494 86.7959 67.1878V58.9479C86.796 58.7863 86.7642 58.6262 86.7024 58.4769C86.6406 58.3276 86.5499 58.1919 86.4357 58.0776C86.3214 57.9633 86.1857 57.8727 86.0364 57.8109C85.8871 57.7491 85.727 57.7173 85.5654 57.7174ZM84.3349 65.9531H80.2364C79.9601 65.9536 79.692 66.0469 79.4752 66.2182C79.2584 66.3895 79.1055 66.6287 79.0411 66.8974C78.6407 68.5759 77.9762 70.18 77.0723 71.6498C76.9277 71.8857 76.8667 72.1633 76.8991 72.4381C76.9315 72.7128 77.0554 72.9687 77.2509 73.1644L80.1513 76.0648L76.0683 80.1471L73.1686 77.2474C72.9727 77.0521 72.7169 76.9284 72.4422 76.896C72.1676 76.8636 71.89 76.9245 71.6541 77.0688C70.1839 77.9726 68.5795 78.6371 66.9009 79.0376C66.6322 79.102 66.393 79.2549 66.2217 79.4717C66.0505 79.6885 65.9571 79.9566 65.9566 80.2329V84.3314H60.1784V80.2399C60.178 79.9634 60.0844 79.6951 59.9129 79.4782C59.7413 79.2614 59.5017 79.1086 59.2327 79.0446C57.5533 78.6442 55.9489 77.9777 54.4802 77.0702C54.2446 76.9245 53.9666 76.8627 53.6914 76.8948C53.4162 76.927 53.16 77.0513 52.9643 77.2474L50.0674 80.1443L45.9844 76.0641L48.8812 73.1665C49.0773 72.9706 49.2014 72.7142 49.2336 72.439C49.2657 72.1637 49.204 71.8857 49.0584 71.6498C48.1512 70.1814 47.4849 68.5772 47.0848 66.8981C47.0208 66.6291 46.868 66.3895 46.6512 66.2179C46.4343 66.0463 46.166 65.9528 45.8895 65.9524H41.7959V60.1784H45.8944C46.1707 60.1778 46.4389 60.0842 46.6557 59.9128C46.8725 59.7415 47.0253 59.5021 47.0897 59.2334C47.4899 57.5549 48.1545 55.9507 49.0584 54.4809C49.2034 54.2453 49.2646 53.9677 49.2322 53.693C49.1998 53.4183 49.0756 53.1625 48.8798 52.9671L45.9844 50.0667L50.0674 45.9844L52.9671 48.8841C53.1624 49.0801 53.4182 49.2044 53.6929 49.2368C53.9677 49.2692 54.2454 49.2078 54.4809 49.0627C55.951 48.1588 57.5554 47.4943 59.2341 47.0939C59.5027 47.0294 59.7419 46.8765 59.9131 46.6597C60.0844 46.4429 60.1778 46.1749 60.1784 45.8986V41.7994H65.9531V45.8909C65.9535 46.1674 66.047 46.4357 66.2186 46.6526C66.3902 46.8694 66.6298 47.0222 66.8988 47.0862C68.5779 47.487 70.1821 48.1538 71.6505 49.0613C71.8863 49.2071 72.1644 49.2689 72.4397 49.2368C72.715 49.2046 72.9714 49.0803 73.1672 48.8841L76.0641 45.9844L80.1471 50.0674L77.2495 52.965C77.0537 53.1609 76.9297 53.4171 76.8975 53.6922C76.8653 53.9673 76.9269 54.2452 77.0723 54.4809C77.9797 55.9493 78.646 57.5535 79.046 59.2327C79.1099 59.5018 79.2626 59.7416 79.4794 59.9133C79.6963 60.085 79.9647 60.1786 80.2413 60.1791H84.3328L84.3349 65.9531Z" fill="black"></path><path id="Vector_4" d="M63.0654 52.4137C60.9587 52.4137 58.8993 53.0384 57.1477 54.2088C55.396 55.3792 54.0308 57.0428 53.2246 58.9891C52.4184 60.9355 52.2074 63.0772 52.6184 65.1434C53.0294 67.2096 54.0439 69.1075 55.5335 70.5972C57.0232 72.0868 58.9211 73.1013 60.9874 73.5123C63.0536 73.9233 65.1953 73.7124 67.1416 72.9062C69.0879 72.1 70.7515 70.7347 71.9219 68.9831C73.0923 67.2314 73.717 65.172 73.717 63.0653C73.7139 60.2413 72.5906 57.5339 70.5937 55.537C68.5969 53.5401 65.8894 52.4169 63.0654 52.4137ZM63.0654 71.2574C61.4454 71.2574 59.8618 70.7771 58.5149 69.8771C57.1679 68.9771 56.1181 67.6978 55.4982 66.2012C54.8782 64.7045 54.716 63.0577 55.0321 61.4688C55.3481 59.88 56.1282 58.4205 57.2737 57.275C58.4192 56.1296 59.8786 55.3495 61.4675 55.0334C63.0563 54.7174 64.7032 54.8796 66.1998 55.4995C67.6965 56.1195 68.9757 57.1693 69.8757 58.5162C70.7757 59.8632 71.2561 61.4468 71.2561 63.0667C71.2533 65.2381 70.3894 67.3196 68.8539 68.8549C67.3184 70.3901 65.2367 71.2536 63.0654 71.256V71.2574Z" fill="black"></path><path id="Vector_5" d="M53.9374 14.6651C61.0866 16.7697 67.2608 21.3356 71.3672 27.5547C70.3824 28.4462 69.7596 29.6687 69.6175 30.9895C69.4755 32.3102 69.8239 33.6372 70.5966 34.7177C71.3693 35.7983 72.5122 36.5571 73.808 36.8497C75.1038 37.1423 76.4619 36.9483 77.624 36.3046C78.786 35.6609 79.6708 34.6125 80.1101 33.3588C80.5493 32.1051 80.5123 30.7337 80.0061 29.5055C79.4999 28.2773 78.5599 27.2781 77.3648 26.698C76.1698 26.1179 74.8032 25.9974 73.5251 26.3594C69.1013 19.5752 62.4024 14.5916 54.6328 12.3047C54.4768 12.2555 54.3126 12.238 54.1497 12.253C53.9869 12.2681 53.8287 12.3155 53.6843 12.3924C53.54 12.4693 53.4125 12.5743 53.3091 12.7011C53.2058 12.8279 53.1288 12.974 53.0827 13.1309C53.0365 13.2878 53.0221 13.4523 53.0402 13.6148C53.0584 13.7774 53.1087 13.9347 53.1884 14.0775C53.268 14.2204 53.3754 14.3459 53.5041 14.4468C53.6328 14.5477 53.7797 14.6219 53.9374 14.6651ZM77.9063 31.552C77.9063 32.1322 77.7342 32.6993 77.4119 33.1817C77.0895 33.6641 76.6314 34.0401 76.0954 34.2622C75.5594 34.4842 74.9696 34.5423 74.4005 34.4291C73.8315 34.3159 73.3088 34.0365 72.8986 33.6263C72.4883 33.216 72.2089 32.6933 72.0957 32.1243C71.9826 31.5553 72.0406 30.9654 72.2627 30.4294C72.4847 29.8934 72.8607 29.4353 73.3431 29.1129C73.8255 28.7906 74.3926 28.6186 74.9728 28.6186C75.7506 28.6193 76.4963 28.9286 77.0462 29.4786C77.5962 30.0285 77.9055 30.7742 77.9063 31.552Z" fill="black"></path><path id="Vector_6" d="M36.0626 75.3349C28.9147 73.2295 22.7419 68.6637 18.6363 62.4452C19.6212 61.5537 20.2439 60.3313 20.386 59.0105C20.5281 57.6897 20.1796 56.3628 19.4069 55.2823C18.6342 54.2017 17.4913 53.4429 16.1955 53.1503C14.8997 52.8577 13.5416 53.0517 12.3796 53.6954C11.2175 54.3391 10.3327 55.3875 9.89344 56.6412C9.45419 57.8949 9.49118 59.2663 9.99737 60.4945C10.5036 61.7226 11.4436 62.7218 12.6387 63.302C13.8337 63.8821 15.2003 64.0026 16.4784 63.6405C20.9012 70.4242 27.5988 75.4078 35.3672 77.6953C35.4802 77.7287 35.5974 77.7455 35.7152 77.7452C36.0108 77.7446 36.2962 77.6376 36.5193 77.4438C36.7425 77.2501 36.8884 76.9825 36.9305 76.6899C36.9726 76.3974 36.9079 76.0995 36.7485 75.8507C36.589 75.6019 36.3452 75.4188 36.0619 75.3349H36.0626ZM12.0937 58.448C12.094 57.8678 12.2663 57.3008 12.5888 56.8186C12.9113 56.3364 13.3695 55.9606 13.9056 55.7388C14.4416 55.517 15.0314 55.4591 15.6003 55.5725C16.1693 55.6858 16.6918 55.9653 17.1019 56.3756C17.512 56.7859 17.7913 57.3086 17.9044 57.8776C18.0174 58.4466 17.9593 59.0363 17.7372 59.5723C17.5151 60.1082 17.1391 60.5663 16.6568 60.8885C16.1744 61.2108 15.6073 61.3828 15.0272 61.3828C14.2492 61.3821 13.5033 61.0726 12.9533 60.5223C12.4033 59.972 12.0941 59.226 12.0937 58.448Z" fill="black"></path></g></g></svg>