<svg xmlns="http://www.w3.org/2000/svg" width="65" height="65" viewBox="0 0 65 65" fill="none"><g><g id="Group"><path id="Vector" d="M53.8281 44.6875H59.9219V46.7188H53.8281V44.6875Z" fill="black"></path><path id="Vector_2" d="M53.8281 48.75H59.9219V50.7812H53.8281V48.75Z" fill="black"></path><path id="Vector_3" d="M53.8281 52.8125H59.9219V54.8438H53.8281V52.8125Z" fill="black"></path><path id="Vector_4" d="M5.07812 44.6875H11.1719V46.7188H5.07812V44.6875Z" fill="black"></path><path id="Vector_5" d="M5.07812 48.75H11.1719V50.7812H5.07812V48.75Z" fill="black"></path><path id="Vector_6" d="M5.07812 52.8125H11.1719V54.8438H5.07812V52.8125Z" fill="black"></path><path id="Vector_7" d="M56.875 9.14062H52.8125V5.07812H46.7188V7.10938H42.6562V13.2031H40.625V15.2344H58.9062V13.2031H56.875V9.14062ZM54.8438 11.1719V13.2031H52.8125V11.1719H54.8438ZM50.7812 7.10938V9.14062V13.2031H48.75V7.10938H50.7812ZM44.6875 9.14062H46.7188V13.2031H44.6875V9.14062Z" fill="black"></path><path id="Vector_8" d="M40.625 17.2656H44.6875V19.2969H40.625V17.2656Z" fill="black"></path><path id="Vector_9" d="M46.7188 17.2656H58.9062V19.2969H46.7188V17.2656Z" fill="black"></path><path id="Vector_10" d="M40.625 21.3281H58.9062V23.3594H40.625V21.3281Z" fill="black"></path><path id="Vector_11" d="M13.2031 5.07812H15.2344V7.10938H13.2031V5.07812Z" fill="black"></path><path id="Vector_12" d="M5.07812 5.07812H7.10938V7.10938H5.07812V5.07812Z" fill="black"></path><path id="Vector_13" d="M9.14062 5.07812H11.1719V7.10938H9.14062V5.07812Z" fill="black"></path><path id="Vector_14" d="M11.1719 13.2031H5.07812V19.2969H11.1719V13.2031ZM9.14062 17.2656H7.10938V15.2344H9.14062V17.2656Z" fill="black"></path><path id="Vector_15" d="M13.2031 13.2031H25.3906V15.2344H13.2031V13.2031Z" fill="black"></path><path id="Vector_16" d="M13.2031 17.2656H25.3906V19.2969H13.2031V17.2656Z" fill="black"></path><path id="Vector_17" d="M5.07812 21.3281H7.10938V23.3594H5.07812V21.3281Z" fill="black"></path><path id="Vector_18" d="M9.14062 21.3281H25.3906V23.3594H9.14062V21.3281Z" fill="black"></path><path id="Vector_19" d="M50.7812 33.5156V27.4219H60.9375C62.6173 27.4219 63.9844 26.0548 63.9844 24.375V4.0625C63.9844 2.38266 62.6173 1.01562 60.9375 1.01562H38.5938C36.9139 1.01562 35.5469 2.38266 35.5469 4.0625V24.375C35.5469 26.0548 36.9139 27.4219 38.5938 27.4219H48.75V31.4844H37.5781V35.8729C36.0486 35.6627 34.3484 35.5469 32.5 35.5469C30.6516 35.5469 28.9514 35.6627 27.4219 35.8729V31.4844H16.25V27.4219H26.4062C28.0861 27.4219 29.4531 26.0548 29.4531 24.375V4.0625C29.4531 2.38266 28.0861 1.01562 26.4062 1.01562H4.0625C2.38266 1.01562 1.01562 2.38266 1.01562 4.0625V24.375C1.01562 26.0548 2.38266 27.4219 4.0625 27.4219H14.2188V33.5156H25.3906V36.2334C21.5902 37.0734 19.2969 38.6323 19.2969 40.625V48.75H15.2344V43.6719C15.2344 41.992 13.8673 40.625 12.1875 40.625H4.0625C2.38266 40.625 1.01562 41.992 1.01562 43.6719V55.8594C1.01562 57.5392 2.38266 58.9062 4.0625 58.9062H12.1875C13.8673 58.9062 15.2344 57.5392 15.2344 55.8594V50.7812H19.2969V58.9062C19.2969 61.944 24.6025 63.9844 32.5 63.9844C40.3975 63.9844 45.7031 61.944 45.7031 58.9062V50.7812H49.7656V55.8594C49.7656 57.5392 51.1327 58.9062 52.8125 58.9062H60.9375C62.6173 58.9062 63.9844 57.5392 63.9844 55.8594V43.6719C63.9844 41.992 62.6173 40.625 60.9375 40.625H52.8125C51.1327 40.625 49.7656 41.992 49.7656 43.6719V48.75H45.7031V40.625C45.7031 38.6323 43.4098 37.0734 39.6094 36.2334V33.5156H50.7812ZM37.5781 24.375V4.0625C37.5781 3.50289 38.0341 3.04688 38.5938 3.04688H60.9375C61.4971 3.04688 61.9531 3.50289 61.9531 4.0625V24.375C61.9531 24.9346 61.4971 25.3906 60.9375 25.3906H38.5938C38.0341 25.3906 37.5781 24.9346 37.5781 24.375ZM4.0625 3.04688H26.4062C26.9659 3.04688 27.4219 3.50289 27.4219 4.0625V9.14062H3.04688V4.0625C3.04688 3.50289 3.50289 3.04688 4.0625 3.04688ZM3.04688 24.375V11.1719H27.4219V24.375C27.4219 24.9346 26.9659 25.3906 26.4062 25.3906H4.0625C3.50289 25.3906 3.04688 24.9346 3.04688 24.375ZM13.2031 55.8594C13.2031 56.419 12.7471 56.875 12.1875 56.875H4.0625C3.50289 56.875 3.04688 56.419 3.04688 55.8594V43.6719C3.04688 43.1123 3.50289 42.6562 4.0625 42.6562H12.1875C12.7471 42.6562 13.2031 43.1123 13.2031 43.6719V55.8594ZM51.7969 43.6719C51.7969 43.1123 52.2529 42.6562 52.8125 42.6562H60.9375C61.4971 42.6562 61.9531 43.1123 61.9531 43.6719V55.8594C61.9531 56.419 61.4971 56.875 60.9375 56.875H52.8125C52.2529 56.875 51.7969 56.419 51.7969 55.8594V43.6719ZM32.5 61.9531C24.702 61.9531 21.3281 59.9351 21.3281 58.9062V55.7111C23.5645 57.0761 27.5133 57.8906 32.5 57.8906C37.4867 57.8906 41.4355 57.0761 43.6719 55.7111V58.9062C43.6719 59.9351 40.298 61.9531 32.5 61.9531ZM32.5 55.8594C24.702 55.8594 21.3281 53.8413 21.3281 52.8125V49.6173C23.5645 50.9823 27.5133 51.7969 32.5 51.7969C37.4867 51.7969 41.4355 50.9823 43.6719 49.6173V52.8125C43.6719 53.8413 40.298 55.8594 32.5 55.8594ZM32.5 49.7656C24.702 49.7656 21.3281 47.7476 21.3281 46.7188V43.5236C23.5645 44.8886 27.5133 45.7031 32.5 45.7031C37.4867 45.7031 41.4355 44.8886 43.6719 43.5236V46.7188C43.6719 47.7476 40.298 49.7656 32.5 49.7656ZM43.6719 40.625C43.6719 41.6538 40.298 43.6719 32.5 43.6719C24.702 43.6719 21.3281 41.6538 21.3281 40.625C21.3281 39.9933 22.6058 38.9909 25.3906 38.3094V40.625H27.4219V37.9163C28.8438 37.7071 30.5297 37.5781 32.5 37.5781C34.4703 37.5781 36.1562 37.7071 37.5781 37.9163V40.625H39.6094V38.3094C42.3942 38.9909 43.6719 39.9933 43.6719 40.625Z" fill="black"></path></g></g></svg>