<svg xmlns="http://www.w3.org/2000/svg" width="71" height="71" viewBox="0 0 71 71" fill="none"><g id="hisotioc"><g id="Group"><g id="Group_2"><path id="Vector" d="M13.064 9.65601H6.81601C4.26001 9.65601 2.13 11.786 2.13 14.342V53.676C2.13 56.232 4.26001 58.362 6.81601 58.362H33.796" stroke="black" stroke-width="2" stroke-miterlimit="10" stroke-linecap="round" stroke-linejoin="round"></path><path id="Vector_2" d="M33.37 9.65601H39.76C42.316 9.65601 44.446 11.786 44.446 14.342V32.944" stroke="black" stroke-width="2" stroke-miterlimit="10" stroke-linecap="round" stroke-linejoin="round"></path><path id="Vector_3" d="M13.064 14.342H6.81601V53.676H32.234" stroke="black" stroke-width="2" stroke-miterlimit="10" stroke-linecap="round" stroke-linejoin="round"></path><path id="Vector_4" d="M33.37 14.342H39.76V35.358" stroke="black" stroke-width="2" stroke-miterlimit="10" stroke-linecap="round" stroke-linejoin="round"></path><path id="Vector_5" d="M33.37 15.62H13.064V9.37198C13.064 7.80998 14.342 6.53198 15.904 6.53198H30.53C32.092 6.53198 33.37 7.80998 33.37 9.37198V15.62Z" stroke="black" stroke-width="2" stroke-miterlimit="10" stroke-linecap="round" stroke-linejoin="round"></path><path id="Vector_6" d="M18.318 6.532V3.692C18.318 2.84 19.028 2.13 19.88 2.13H26.554C27.406 2.13 28.116 2.84 28.116 3.692V6.532" stroke="black" stroke-width="2" stroke-miterlimit="10" stroke-linecap="round" stroke-linejoin="round"></path><g id="Group_3"><path id="Vector_7" d="M13.49 23.856H32.944" stroke="black" stroke-width="2" stroke-miterlimit="10" stroke-linecap="round" stroke-linejoin="round"></path><path id="Vector_8" d="M21.158 29.8199H32.944" stroke="black" stroke-width="2" stroke-miterlimit="10" stroke-linecap="round" stroke-linejoin="round"></path><path id="Vector_9" d="M13.49 29.8199H16.898" stroke="black" stroke-width="2" stroke-miterlimit="10" stroke-linecap="round" stroke-linejoin="round"></path><path id="Vector_10" d="M28.968 35.7839H32.944" stroke="black" stroke-width="2" stroke-miterlimit="10" stroke-linecap="round" stroke-linejoin="round"></path><path id="Vector_11" d="M13.49 35.7839H24.708" stroke="black" stroke-width="2" stroke-miterlimit="10" stroke-linecap="round" stroke-linejoin="round"></path><path id="Vector_12" d="M13.49 41.7479H28.542" stroke="black" stroke-width="2" stroke-miterlimit="10" stroke-linecap="round" stroke-linejoin="round"></path><path id="Vector_13" d="M25.844 47.7119H26.27" stroke="black" stroke-width="2" stroke-miterlimit="10" stroke-linecap="round" stroke-linejoin="round"></path><path id="Vector_14" d="M13.49 47.7119H21.584" stroke="black" stroke-width="2" stroke-miterlimit="10" stroke-linecap="round" stroke-linejoin="round"></path></g></g><path id="Vector_15" d="M50.41 65.32C58.6446 65.32 65.32 58.6446 65.32 50.41C65.32 42.1754 58.6446 35.5 50.41 35.5C42.1754 35.5 35.5 42.1754 35.5 50.41C35.5 58.6446 42.1754 65.32 50.41 65.32Z" stroke="black" stroke-width="2" stroke-miterlimit="10" stroke-linecap="round" stroke-linejoin="round"></path><path id="Vector_16" d="M50.41 68.8699C60.6052 68.8699 68.87 60.6051 68.87 50.41C68.87 40.2148 60.6052 31.95 50.41 31.95C40.2148 31.95 31.95 40.2148 31.95 50.41C31.95 60.6051 40.2148 68.8699 50.41 68.8699Z" stroke="black" stroke-width="2" stroke-miterlimit="10" stroke-linecap="round" stroke-linejoin="round"></path><path id="Vector_17" d="M50.41 35.5V38.056" stroke="black" stroke-width="2" stroke-miterlimit="10" stroke-linecap="round" stroke-linejoin="round"></path><path id="Vector_18" d="M50.41 62.906V65.462" stroke="black" stroke-width="2" stroke-miterlimit="10" stroke-linecap="round" stroke-linejoin="round"></path><path id="Vector_19" d="M65.462 50.41H62.906" stroke="black" stroke-width="2" stroke-miterlimit="10" stroke-linecap="round" stroke-linejoin="round"></path><path id="Vector_20" d="M38.056 50.41H35.5" stroke="black" stroke-width="2" stroke-miterlimit="10" stroke-linecap="round" stroke-linejoin="round"></path><path id="Vector_21" d="M37.488 57.936L39.618 56.658" stroke="black" stroke-width="2" stroke-miterlimit="10" stroke-linecap="round" stroke-linejoin="round"></path><path id="Vector_22" d="M61.202 44.304L63.474 43.026" stroke="black" stroke-width="2" stroke-miterlimit="10" stroke-linecap="round" stroke-linejoin="round"></path><path id="Vector_23" d="M43.026 37.488L44.304 39.76" stroke="black" stroke-width="2" stroke-miterlimit="10" stroke-linecap="round" stroke-linejoin="round"></path><path id="Vector_24" d="M56.658 61.202L57.936 63.474" stroke="black" stroke-width="2" stroke-miterlimit="10" stroke-linecap="round" stroke-linejoin="round"></path><path id="Vector_25" d="M63.474 57.936L61.202 56.658" stroke="black" stroke-width="2" stroke-miterlimit="10" stroke-linecap="round" stroke-linejoin="round"></path><path id="Vector_26" d="M39.618 44.304L37.488 43.026" stroke="black" stroke-width="2" stroke-miterlimit="10" stroke-linecap="round" stroke-linejoin="round"></path><path id="Vector_27" d="M43.026 63.474L44.304 61.202" stroke="black" stroke-width="2" stroke-miterlimit="10" stroke-linecap="round" stroke-linejoin="round"></path><path id="Vector_28" d="M56.658 39.76L57.936 37.488" stroke="black" stroke-width="2" stroke-miterlimit="10" stroke-linecap="round" stroke-linejoin="round"></path><path id="Vector_29" d="M50.41 51.688C51.1158 51.688 51.688 51.1158 51.688 50.41C51.688 49.7041 51.1158 49.132 50.41 49.132C49.7042 49.132 49.132 49.7041 49.132 50.41C49.132 51.1158 49.7042 51.688 50.41 51.688Z" stroke="black" stroke-width="2" stroke-miterlimit="10" stroke-linecap="round" stroke-linejoin="round"></path><path id="Vector_30" d="M50.41 49.132V45.866" stroke="black" stroke-width="2" stroke-miterlimit="10" stroke-linecap="round" stroke-linejoin="round"></path><path id="Vector_31" d="M49.132 46.1499L50.41 44.8719L51.688 46.1499" stroke="black" stroke-width="2" stroke-miterlimit="10" stroke-linecap="round" stroke-linejoin="round"></path><path id="Vector_32" d="M51.972 50.41H59.072" stroke="black" stroke-width="2" stroke-miterlimit="10" stroke-linecap="round" stroke-linejoin="round"></path><path id="Vector_33" d="M58.788 49.132L60.066 50.41L58.788 51.688" stroke="black" stroke-width="2" stroke-miterlimit="10" stroke-linecap="round" stroke-linejoin="round"></path></g></g></svg>