<?xml version="1.0" encoding="UTF-8"?> <svg xmlns="http://www.w3.org/2000/svg" width="188" height="40" viewBox="0 0 188 40" fill="none"><g id="Logo"><g id="Group"><path id="Vector" d="M40.2045 0V6.68182H50.75V0H40.2045ZM40.2045 8.93182V32.2954H50.75V8.93182H40.2045ZM85.6591 8.47727C85.4773 9.90909 85.1818 10.9545 84.75 11.6591C81.4091 9.15909 77.1364 7.93182 71.9318 7.93182H71.2727C65.8864 7.93182 61.8864 9.02273 59.3409 11.1818C56.7954 13.3636 55.5 16.1364 55.5 19.5682V20.3864C55.5 23.9545 56.8182 26.8409 59.4773 29.0682C62.1364 31.2955 66.25 32.4091 71.8409 32.4091H72.2273C74.6591 32.4091 76.8409 32.1591 78.7727 31.6364C80.7045 31.1136 82.0454 30.6136 82.7954 30.1364C83.5454 29.6591 84.1818 29.1591 84.6818 28.6364V40H95.25V8.47727H85.6591ZM84.6591 20.1591C84.6591 21.7727 83.8182 23.2045 82.1136 24.4318C80.4091 25.6591 78.0682 26.2727 75.1136 26.2727H74.8864C71.9091 26.2727 69.75 25.6818 68.3636 24.4773C67 23.2727 66.2955 21.8409 66.2955 20.2045V20.0227C66.2955 18.2955 66.9545 16.8636 68.2273 15.7273C69.5227 14.5909 71.7045 14.0227 74.7727 14.0227H75C78 14.0227 80.3636 14.6136 82.0682 15.7727C83.7954 16.9545 84.6364 18.3409 84.6364 19.9545V20.1591H84.6591ZM36.4545 7.40909V0.068179H0V32.4091H11V19.5909H35.8182V12.2045H11V7.43182H36.4545V7.40909Z" fill="#141414"></path><path id="Vector_2" d="M187.591 17.4318V32.2045H176.932V20.659C176.932 18.7954 176.364 17.3636 175.227 16.3636C174.091 15.3409 172.386 14.8409 170.114 14.8409C167.75 14.8409 165.864 15.409 164.432 16.5681C163.023 17.7272 162.295 19.25 162.295 21.1818V32.2045H151.75V8.81813H162.205V12.8181C165.477 9.81814 169.705 8.29541 174.841 8.29541H175.182C179.318 8.29541 182.409 9.18177 184.477 10.9772C186.545 12.75 187.591 14.909 187.591 17.4318Z" fill="#141414"></path></g><path id="Vector_3" d="M143.909 12.0001C142 9.86371 139.386 8.54553 136.5 8.54553H110.455C104.659 8.54553 99.9773 13.841 99.9773 20.3637C99.9773 23.6364 101.159 26.591 103.045 28.7274C104.955 30.8637 107.568 32.1819 110.455 32.1819H136.5C142.295 32.1819 146.977 26.8864 146.977 20.3637C146.977 17.1137 145.818 14.1592 143.909 12.0001ZM135.114 29.6364C130.045 29.6364 125.909 25.4774 125.909 20.3637C125.909 15.2274 130.023 11.091 135.159 11.091C140.091 11.091 144.432 14.9773 144.432 20.341C144.432 25.7501 140.091 29.6364 135.114 29.6364Z" fill="white"></path></g></svg> 